<svg width="42" height="22" viewBox="0 0 42 22" fill="none" xmlns="http://www.w3.org/2000/svg">
<path d="M21.6301 17.5571C24.6184 16.9169 26.9115 13.231 26.9115 8.77956C26.9115 4.32809 24.6184 0.642238 21.6301 0.00335709C21.5226 -0.019922 21.4238 0.0809539 21.4238 0.210282V17.3501" fill="#3D3017"/>
<path d="M20.3334 17.3501V0.210285C20.3334 0.0796637 20.2346 -0.019919 20.1271 0.0033601C17.1388 0.643534 14.8457 4.32938 14.8457 8.78086C14.8457 13.2323 17.1376 16.9182 20.1271 17.5584" fill="#3D3017"/>
<path d="M31.246 21.6723C34.0992 22.7936 37.9465 20.9597 40.2596 17.2053C42.5727 13.4509 42.554 9.06798 40.3646 6.86811C40.2859 6.78922 40.1508 6.81896 40.0833 6.92889L31.1797 21.3839" fill="#3D3017"/>
<path d="M30.2611 20.7773L39.1648 6.32234C39.2323 6.21241 39.201 6.07273 39.0985 6.03264C36.2452 4.91137 32.398 6.74524 30.0848 10.4996C27.7717 14.254 27.7905 18.637 29.9798 20.8368" fill="#3D3017"/>
<path d="M10.7548 21.6723C7.90149 22.7936 4.05421 20.9597 1.74109 17.2053C-0.572029 13.4509 -0.553275 9.06796 1.63606 6.86809C1.71483 6.7892 1.84987 6.81895 1.91739 6.92887L10.821 21.3839" fill="#3D3017"/>
<path d="M11.7402 20.7773L2.83658 6.32233C2.76906 6.2124 2.80032 6.07272 2.90285 6.03263C5.75611 4.91136 9.60339 6.74523 11.9165 10.5009C14.2296 14.2553 14.2109 18.6382 12.0215 20.8381" fill="#3D3017"/>
</svg>
