<svg width="19" height="25" viewBox="0 0 19 25" fill="none" xmlns="http://www.w3.org/2000/svg">
<path d="M17.5183 7.86945C17.4682 7.26797 17.2176 6.7166 16.8166 6.31561C16.4156 5.91462 15.8893 5.664 15.2627 5.664H13.9344V4.51115C13.9344 3.25805 13.4332 2.13027 12.6062 1.32828C11.7791 0.501239 10.6513 0 9.42329 0C8.1702 0 7.04241 0.501239 6.24043 1.32828C5.41338 2.13027 4.91214 3.25805 4.91214 4.51115V5.664H3.58386C2.95731 5.664 2.43101 5.91462 2.03002 6.31561C1.62903 6.7166 1.37841 7.26797 1.32828 7.86945L0 22.7061C0 22.7813 0 22.8565 0 22.8816C0 23.4329 0.225558 23.9592 0.626549 24.3352C1.00248 24.686 1.50372 24.9366 2.03002 24.9868H2.05508C2.13027 24.9868 2.20545 24.9868 2.25558 24.9868H16.591C16.6411 24.9868 16.7163 24.9868 16.7915 24.9868C17.3429 24.9366 17.8441 24.686 18.22 24.3352C18.621 23.9592 18.8466 23.4329 18.8466 22.8565C18.8466 22.8064 18.8466 22.7563 18.8466 22.6811L17.5183 7.86945ZM6.29055 4.51115C6.29055 3.63398 6.64142 2.85706 7.21784 2.28064C7.79427 1.70421 8.57119 1.35335 9.44836 1.35335C10.3255 1.35335 11.1024 1.70421 11.6789 2.28064C12.2553 2.85706 12.6062 3.63398 12.6062 4.51115V5.664H6.29055V4.51115ZM17.4431 22.8816C17.4431 23.0821 17.3679 23.2575 17.2176 23.3828C17.0672 23.5332 16.8416 23.6334 16.6411 23.6585C16.6411 23.6585 16.6161 23.6585 16.566 23.6585H2.25558C2.20545 23.6585 2.18039 23.6585 2.18039 23.6585H2.15533C1.92977 23.6334 1.72927 23.5332 1.5789 23.3828C1.42853 23.2575 1.35335 23.0821 1.35335 22.8816V22.8064L2.68163 7.99476C2.70669 7.71908 2.832 7.46846 3.00743 7.29303C3.15781 7.14266 3.3583 7.04241 3.58386 7.04241H4.91214V10.1C4.91214 10.4759 5.21289 10.7766 5.58882 10.7766C5.96474 10.7766 6.26549 10.4759 6.26549 10.1V7.04241H12.531V10.1C12.531 10.4759 12.8317 10.7766 13.2076 10.7766C13.5836 10.7766 13.8843 10.4759 13.8843 10.1V7.04241H15.2126C15.4382 7.04241 15.6387 7.14266 15.789 7.29303C15.9645 7.46846 16.0898 7.71908 16.1148 7.99476L17.4431 22.8314V22.8816Z" fill="black"/>
</svg>
